<?xml version="1.0" ?><svg height="72" viewBox="0 0 72 72" width="72" xmlns="http://www.w3.org/2000/svg"><g fill="none" fill-rule="evenodd"><path d="M8,72 L64,72 C68.418278,72 72,68.418278 72,64 L72,8 C72,3.581722 68.418278,-8.11624501e-16 64,0 L8,0 C3.581722,8.11624501e-16 -5.41083001e-16,3.581722 0,8 L0,64 C5.41083001e-16,68.418278 3.581722,72 8,72 Z" fill="#FFF"/><path d="M64.0023206,72 L7.99767944,72 C3.58279866,72 0,68.4193169 0,64.0023206 L0,7.99767944 C0,3.58279866 3.58068305,0 7.99767944,0 L64.0023206,0 C68.4172013,0 72,3.58068305 72,7.99767944 L72,64.0023206 C72,68.4172013 68.4193169,72 64.0023206,72 Z M50.7953316,61.7421905 L61.4811176,61.7421905 L61.4811176,9.79792467 L50.4461842,12.0843604 L50.4461842,28.427426 C47.9318611,25.2147381 44.4397572,23.6782656 39.9000012,23.6782656 C35.1507008,23.6782656 30.8903607,25.4242825 27.3981869,28.8465148 C23.4871342,32.6180346 21.3917598,37.4370665 21.3917598,42.8150002 C21.3917598,48.6817543 23.6265971,53.7104006 27.9568787,57.5516518 C31.2395081,60.4850639 35.1507008,61.9517349 39.6904568,61.9517349 C44.1603413,61.9517349 47.5128422,60.7644098 50.7953316,57.5516518 L50.7953316,61.7421905 Z M32.4269032,42.7451288 C32.4269032,37.7164824 36.4776989,33.4561423 41.7159596,33.4561423 C46.8842789,33.4561423 50.8652031,37.507008 50.8652031,42.8848017 C50.8652031,48.053191 46.8842789,51.9643137 42.1349785,51.9643137 C36.4776989,51.9643137 32.4269032,47.9833895 32.4269032,42.7451288 Z" fill="#0066DC"/></g></svg>